# xmcd
# 
# Track frame offsets:
#     150
#     17192
#     31767
#     50749
#     64197
#     81816
#     99156
#     113875
#     129268
#     149848
#     170316
#     185520
#     201078
# 
# Disc length: 2887
# 
# Revision: 1
# Processed by: cddbd v1.5.2PL0 Copyright (c) Steve Scherf et al.
# Submitted via: fre:ac v1.0.27
# 
DISCID=b10b450d
DTITLE=Tift Merritt - Stitch of the World
DYEAR=2017
DGENRE=Country-influenced Rock
TTITLE0=Dusty Old Man
TTITLE1=Heartache Is an Uphill Climb
TTITLE2=My Boat
TTITLE3=Love Soldiers On
TTITLE4=Stitch of the World
TTITLE5=Icarus
TTITLE6=Proclamation Bones
TTITLE7=Something Came Over Me
TTITLE8=Eastern Light
TTITLE9=Wait For Me
TTITLE10=Day He Died
TTITLE11=Something Came Over Me (Acoustic)
TTITLE12=Stitch of the World (Acoustic)
EXTD=
EXTT0=
EXTT1=
EXTT2=
EXTT3=
EXTT4=
EXTT5=
EXTT6=
EXTT7=
EXTT8=
EXTT9=
EXTT10=
EXTT11=
EXTT12=
PLAYORDER=
